<svg xmlns="http://www.w3.org/2000/svg" width="525.428" height="525.428" viewBox="0 0 525.428 525.428">
  <path id="Path_19" data-name="Path 19" d="M338.149,89.724c-145.092,0-262.712,117.624-262.712,262.716s117.62,262.712,262.712,262.712S600.865,497.532,600.865,352.44,483.242,89.724,338.149,89.724ZM462.944,376.733a81.086,81.086,0,0,1,5,28.234,79.693,79.693,0,0,1-22.4,55.826,76.807,76.807,0,0,1-24.459,16.871,73.661,73.661,0,0,1-29.9,6.142H260.8a52.437,52.437,0,0,1-52.438-52.438v-.182H391.175a25.425,25.425,0,0,0,10.087-2.019,24.924,24.924,0,0,0,8.211-5.593,25.9,25.9,0,0,0,5.446-8.343,27.806,27.806,0,0,0,0-20.534,26.024,26.024,0,0,0-5.446-8.343,25.1,25.1,0,0,0-8.211-5.593,25.488,25.488,0,0,0-10.087-2.015H260.8a52.437,52.437,0,0,1-52.438-52.438v-.186H391.175a25.487,25.487,0,0,0,10.087-2.011,24.922,24.922,0,0,0,8.211-5.593,25.938,25.938,0,0,0,5.446-8.343,27.806,27.806,0,0,0,0-20.534,25.979,25.979,0,0,0-13.657-14.028,24.52,24.52,0,0,0-10.087-2.108H260.8a52.434,52.434,0,0,1-52.438-52.434H391.175a73.659,73.659,0,0,1,29.9,6.138,76.92,76.92,0,0,1,24.459,16.867,79.731,79.731,0,0,1,22.4,55.834,80.32,80.32,0,0,1-5,28.141A76.01,76.01,0,0,1,448.3,352.347,75.723,75.723,0,0,1,462.944,376.733Z" transform="translate(-75.437 -89.724)" fill="rgba(255,255,255,0.1)"/>
</svg>
