<svg xmlns="http://www.w3.org/2000/svg" width="348.766" height="84.505" viewBox="0 0 348.766 84.505"><g transform="translate(-75.437 -89.724)"><path d="M117.689,89.724a42.253,42.253,0,1,0,42.253,42.253A42.253,42.253,0,0,0,117.689,89.724Zm20.071,46.16a13.041,13.041,0,0,1,.8,4.541,12.817,12.817,0,0,1-3.6,8.979,12.353,12.353,0,0,1-3.934,2.713,11.847,11.847,0,0,1-4.81.988H105.248a8.434,8.434,0,0,1-8.434-8.434v-.029h29.4a4.089,4.089,0,0,0,1.622-.325,4.009,4.009,0,0,0,1.321-.9,4.165,4.165,0,0,0,.876-1.342,4.472,4.472,0,0,0,0-3.3,4.185,4.185,0,0,0-.876-1.342,4.037,4.037,0,0,0-1.321-.9,4.1,4.1,0,0,0-1.622-.324H105.248a8.434,8.434,0,0,1-8.434-8.434v-.03h29.4a4.1,4.1,0,0,0,1.622-.323,4.008,4.008,0,0,0,1.321-.9,4.172,4.172,0,0,0,.876-1.342,4.472,4.472,0,0,0,0-3.3,4.178,4.178,0,0,0-2.2-2.256,3.944,3.944,0,0,0-1.622-.339H105.248a8.433,8.433,0,0,1-8.434-8.433h29.4a11.847,11.847,0,0,1,4.81.987,12.371,12.371,0,0,1,3.934,2.713,12.823,12.823,0,0,1,3.6,8.98,12.918,12.918,0,0,1-.8,4.526,12.225,12.225,0,0,1-2.354,3.907A12.178,12.178,0,0,1,137.76,135.884Z" fill="#fff"/><path d="M269.772,138.018a7.684,7.684,0,0,0-1.524-4.9,7.815,7.815,0,0,0-4.18-2.678,7.234,7.234,0,0,0,2.983-2.656,7.529,7.529,0,0,0,1.11-4.137,6.78,6.78,0,0,0-2.852-5.791q-2.852-2.09-8.077-2.09H243.559v30.48H258.1q5.7,0,8.687-2.134A7.044,7.044,0,0,0,269.772,138.018Zm-21.859-18.724h8.926a9.065,9.065,0,0,1,5.16,1.241,4.561,4.561,0,0,1,0,7.272,9.065,9.065,0,0,1-5.16,1.241h-8.926ZM263.5,141.5a10.309,10.309,0,0,1-5.574,1.219H247.913V132.576h10.015q7.446,0,7.446,5.095A4.243,4.243,0,0,1,263.5,141.5Z" transform="translate(-63.543 -9.844)" fill="#fff"/><path d="M320.764,122.806a14.862,14.862,0,0,0-5.791-5.574,18,18,0,0,0-16.589,0,14.963,14.963,0,0,0-5.814,5.6,16.089,16.089,0,0,0,0,15.937,14.959,14.959,0,0,0,5.814,5.6,18,18,0,0,0,16.589,0,14.858,14.858,0,0,0,5.791-5.574,16.318,16.318,0,0,0,0-15.98Zm-3.81,13.977a11.181,11.181,0,0,1-4.224,4.2,11.971,11.971,0,0,1-6.03,1.524,12.211,12.211,0,0,1-6.075-1.524,11.082,11.082,0,0,1-4.267-4.2,12.363,12.363,0,0,1,0-11.974,11.086,11.086,0,0,1,4.267-4.2,12.217,12.217,0,0,1,6.075-1.524,11.977,11.977,0,0,1,6.03,1.524,11.186,11.186,0,0,1,4.224,4.2,12.368,12.368,0,0,1,0,11.974Z" transform="translate(-81.269 -9.632)" fill="#fff"/><path d="M363.617,146.6q6.1,0,9.492-3.462t3.4-10.037v-17.33h-4.224v17.156q0,4.964-2.221,7.381a8.258,8.258,0,0,1-6.4,2.417q-8.579,0-8.578-9.8V115.768h-4.354V133.1q0,6.531,3.4,10.015T363.617,146.6Z" transform="translate(-104.048 -9.844)" fill="#fff"/><path d="M414.156,146.248l8.317-24.34,8.316,24.34h4.572l10.189-30.48h-4.137l-8.4,24.907-8.4-24.907H420.6l-8.578,24.776-8.229-24.776h-4.485l10.189,30.48Z" transform="translate(-122.409 -9.844)" fill="#fff"/><path d="M508.912,115.768l-12.54,21.423-12.715-21.423h-3.571v30.48h4.181V124.172l11.016,18.375h2L508.3,124.041l.044,22.207h4.18l-.044-30.48Z" transform="translate(-152.94 -9.844)" fill="#fff"/><path d="M551.219,115.768l-13.8,30.48H541.9l3.353-7.62h16.2l3.353,7.62h4.571l-13.847-30.48Zm-4.441,19.377,6.574-14.935,6.576,14.935Z" transform="translate(-174.608 -9.844)" fill="#fff"/><path d="M615.834,115.768V138.5l-18.288-22.729h-3.571v30.48h4.354V123.519l18.288,22.729h3.571v-30.48Z" transform="translate(-195.985 -9.844)" fill="#fff"/><g transform="translate(179.935 143.931)"><path d="M249.386,185.771a9.764,9.764,0,0,0-3.083.483,7.413,7.413,0,0,0-2.508,1.372l.837,1.385a6.317,6.317,0,0,1,2.063-1.189,7.372,7.372,0,0,1,2.508-.431,4.1,4.1,0,0,1,2.9.927,3.521,3.521,0,0,1,.993,2.7v.836h-4.363a6.2,6.2,0,0,0-4.036,1.071,3.774,3.774,0,0,0,.092,5.722,5.65,5.65,0,0,0,3.658,1.1,6.445,6.445,0,0,0,2.886-.6,4.253,4.253,0,0,0,1.842-1.672v2.142h1.777V191.1a5.2,5.2,0,0,0-1.438-3.984A5.817,5.817,0,0,0,249.386,185.771Zm3.71,9.719a4.292,4.292,0,0,1-1.671,2.077,4.891,4.891,0,0,1-2.692.718,4.163,4.163,0,0,1-2.56-.692,2.246,2.246,0,0,1-.914-1.894q0-2.456,3.526-2.456H253.1Z" transform="translate(-243.429 -180.232)" fill="#fff"/><path d="M280.506,193.15a5.114,5.114,0,0,1-1.254,3.671,4.5,4.5,0,0,1-3.423,1.319,4.024,4.024,0,0,1-3.057-1.123,4.6,4.6,0,0,1-1.071-3.292v-7.785h-1.855v7.968a5.32,5.32,0,0,0,5.8,5.9,6.053,6.053,0,0,0,2.926-.692,5.092,5.092,0,0,0,2.012-1.946v2.508h1.777V185.939h-1.855Z" transform="translate(-253.414 -180.296)" fill="#fff"/><path d="M302.677,196.21a3.413,3.413,0,0,1-1.11.183,2.33,2.33,0,0,1-1.763-.64,2.6,2.6,0,0,1-.613-1.868v-8.2h4.18v-1.568h-4.18v-3h-1.855v3h-2.456v1.568h2.456v8.308a3.639,3.639,0,0,0,4.023,4,5.225,5.225,0,0,0,1.607-.248,3.512,3.512,0,0,0,1.293-.718l-.652-1.332A2.757,2.757,0,0,1,302.677,196.21Z" transform="translate(-262.874 -178.47)" fill="#fff"/><path d="M322.932,186.659a7.655,7.655,0,0,0-7.158,0,6.471,6.471,0,0,0-2.508,2.482,7.565,7.565,0,0,0,0,7.211,6.565,6.565,0,0,0,2.508,2.5,7.557,7.557,0,0,0,7.158,0,6.479,6.479,0,0,0,2.494-2.5,7.657,7.657,0,0,0,0-7.211A6.387,6.387,0,0,0,322.932,186.659Zm.862,8.883a4.644,4.644,0,0,1-1.815,1.894,5.508,5.508,0,0,1-5.252,0,4.73,4.73,0,0,1-1.828-1.894,6.193,6.193,0,0,1,0-5.591,4.73,4.73,0,0,1,1.828-1.894,5.508,5.508,0,0,1,5.252,0,4.643,4.643,0,0,1,1.815,1.894,6.309,6.309,0,0,1,0,5.591Z" transform="translate(-269.479 -180.232)" fill="#fff"/><path d="M358.049,185.771a6.719,6.719,0,0,0-3.252.771,5.347,5.347,0,0,0-2.182,2.129,4.5,4.5,0,0,0-1.894-2.168,5.882,5.882,0,0,0-2.992-.732,6.421,6.421,0,0,0-3,.679,4.951,4.951,0,0,0-2.037,1.933v-2.508h-1.777v13.742h1.855v-7.211a5.108,5.108,0,0,1,1.24-3.645,4.389,4.389,0,0,1,3.358-1.319,3.79,3.79,0,0,1,2.939,1.123,4.662,4.662,0,0,1,1.032,3.266v7.786h1.856v-7.211a5.141,5.141,0,0,1,1.227-3.645,4.379,4.379,0,0,1,3.37-1.319,3.758,3.758,0,0,1,2.914,1.123,4.668,4.668,0,0,1,1.031,3.266v7.786h1.856v-7.968a5.983,5.983,0,0,0-1.476-4.389A5.463,5.463,0,0,0,358.049,185.771Z" transform="translate(-280.273 -180.232)" fill="#fff"/><path d="M393.911,186.659a7.655,7.655,0,0,0-7.158,0,6.476,6.476,0,0,0-2.508,2.482,7.565,7.565,0,0,0,0,7.211,6.569,6.569,0,0,0,2.508,2.5,7.557,7.557,0,0,0,7.158,0,6.485,6.485,0,0,0,2.5-2.5,7.662,7.662,0,0,0,0-7.211A6.393,6.393,0,0,0,393.911,186.659Zm.862,8.883a4.645,4.645,0,0,1-1.816,1.894,5.507,5.507,0,0,1-5.251,0,4.732,4.732,0,0,1-1.829-1.894,6.2,6.2,0,0,1,0-5.591,4.731,4.731,0,0,1,1.829-1.894,5.507,5.507,0,0,1,5.251,0,4.645,4.645,0,0,1,1.816,1.894,6.309,6.309,0,0,1,0,5.591Z" transform="translate(-296.306 -180.232)" fill="#fff"/><path d="M416.245,196.21a3.41,3.41,0,0,1-1.11.183,2.325,2.325,0,0,1-1.763-.64,2.594,2.594,0,0,1-.615-1.868v-8.2h4.181v-1.568h-4.181v-3H410.9v3h-2.456v1.568H410.9v8.308a3.64,3.64,0,0,0,4.023,4,5.232,5.232,0,0,0,1.607-.248,3.525,3.525,0,0,0,1.293-.718l-.652-1.332A2.763,2.763,0,0,1,416.245,196.21Z" transform="translate(-305.798 -178.47)" fill="#fff"/><path d="M429.608,176.867a1.313,1.313,0,0,0-.967.392,1.253,1.253,0,0,0-.392.914,1.283,1.283,0,0,0,.392.941,1.358,1.358,0,0,0,2.325-.967,1.211,1.211,0,0,0-.392-.9A1.337,1.337,0,0,0,429.608,176.867Z" transform="translate(-313.283 -176.867)" fill="#fff"/><rect width="1.855" height="13.742" transform="translate(115.397 5.643)" fill="#fff"/><path d="M443.2,197.643l-5.146-11.7h-1.934l6.087,13.742h1.907l6.113-13.742H448.4Z" transform="translate(-316.259 -180.296)" fill="#fff"/><path d="M470.284,186.659a6.64,6.64,0,0,0-3.422-.888,6.71,6.71,0,0,0-3.436.888,6.342,6.342,0,0,0-2.4,2.482,7.365,7.365,0,0,0-.875,3.605,7.107,7.107,0,0,0,.915,3.605,6.493,6.493,0,0,0,2.547,2.5,7.629,7.629,0,0,0,3.75.9,7.731,7.731,0,0,0,3.017-.575,5.885,5.885,0,0,0,2.286-1.672l-1.045-1.2a5.136,5.136,0,0,1-1.855,1.345,5.93,5.93,0,0,1-2.351.457,5.464,5.464,0,0,1-3.763-1.319A4.911,4.911,0,0,1,462,193.321h11.5l.026-.575a7.434,7.434,0,0,0-.862-3.618A6.3,6.3,0,0,0,470.284,186.659ZM462,191.937a4.977,4.977,0,0,1,1.528-3.3,5.046,5.046,0,0,1,6.688,0,4.977,4.977,0,0,1,1.528,3.3Z" transform="translate(-325.339 -180.232)" fill="#fff"/></g></g></svg>