<svg xmlns="http://www.w3.org/2000/svg" width="35" height="35" viewBox="0 0 35 35">
  <g id="Group_8" data-name="Group 8" transform="translate(-1124 -31)">
    <g id="phone" transform="translate(1131.999 39)">
      <g id="Group_7" data-name="Group 7" transform="translate(0.001 0)">
        <path id="Path_20" data-name="Path 20" d="M18.191,12.808l-2.063-1.474a1.987,1.987,0,0,0-2.568.213l-1.209,1.209A38.723,38.723,0,0,1,6.27,6.675L7.479,5.466A1.987,1.987,0,0,0,7.692,2.9L6.218.835A1.994,1.994,0,0,0,3.186.584l-1.9,1.9c-1.711,1.71-1.709,4.025,0,6.351a38.686,38.686,0,0,0,8.9,8.9c2.151,1.584,4.516,1.839,6.351,0l1.9-1.9A1.994,1.994,0,0,0,18.191,12.808Zm-.8,1.981-1.9,1.9c-1.32,1.32-2.921.953-4.419-.15A37.316,37.316,0,0,1,2.484,7.957c-1.1-1.5-1.47-3.1-.15-4.419l1.9-1.9a.507.507,0,0,1,.771.064L6.482,3.761a.506.506,0,0,1-.054.653L4.82,6.024a.743.743,0,0,0-.175.774c.512,1.444,6.141,7.072,7.584,7.584A.743.743,0,0,0,13,14.206L14.611,12.6a.506.506,0,0,1,.654-.054l2.063,1.474A.507.507,0,0,1,17.391,14.788Z" transform="translate(-0.001 0)" fill="#f2b229"/>
      </g>
    </g>
    <g id="Ellipse_1" data-name="Ellipse 1" transform="translate(1124 31)" fill="none" stroke="#f2b229" stroke-width="2">
      <circle cx="17.5" cy="17.5" r="17.5" stroke="none"/>
      <circle cx="17.5" cy="17.5" r="16.5" fill="none"/>
    </g>
  </g>
</svg>
